<svg xmlns="http://www.w3.org/2000/svg" width="432" height="432" viewBox="0 0 432 432">
<g>
<path d="M 336.49 415.96 C323.41,417.20 107.96,417.16 95.01,415.91 C71.13,413.61 54.60,406.33 38.64,391.06 C25.79,378.77 17.59,364.61 14.02,348.50 C10.51,332.62 9.79,303.24 10.28,194.27 C10.75,86.62 10.97,81.73 15.92,66.00 C23.32,42.46 47.46,18.32 71.00,10.92 C87.72,5.66 90.34,5.56 216.50,5.56 C342.61,5.56 345.19,5.66 362.01,10.90 C385.02,18.08 408.72,41.90 416.34,65.50 C421.34,81.02 421.29,79.78 421.74,201.00 C422.17,319.90 421.78,335.61 417.95,350.81 C414.88,363.03 408.17,375.49 399.20,385.65 C390.01,396.05 382.81,401.52 370.50,407.46 C360.16,412.45 352.01,414.48 336.49,415.96 ZM 215.00 171.05 C229.18,172.23 267.83,171.30 280.00,169.48 C302.56,166.11 323.62,159.90 339.33,151.98 C355.23,143.97 366.17,134.01 370.52,123.61 C373.02,117.63 372.64,108.07 369.63,101.51 C366.77,95.25 357.29,85.10 350.00,80.48 C324.02,63.99 284.37,54.72 240.41,54.84 C222.00,54.89 192.88,57.56 185.46,59.88 C183.83,60.39 179.12,61.57 175.00,62.50 C159.07,66.09 138.29,74.95 127.90,82.57 C121.01,87.63 114.10,95.64 111.12,102.00 C104.40,116.40 111.73,133.42 129.77,145.31 C135.61,149.15 137.39,149.81 143.21,150.25 C150.23,150.79 155.41,153.12 163.31,159.28 C169.12,163.82 192.73,169.20 215.00,171.05 ZM 136.50 366.94 C145.00,367.65 147.96,367.50 157.50,365.90 C200.00,358.77 230.27,318.22 225.22,275.20 C224.06,265.31 219.22,249.38 217.46,249.64 C216.93,249.71 212.08,250.56 206.67,251.52 C198.51,252.97 196.92,253.54 197.34,254.88 C197.62,255.77 199.08,259.88 200.57,264.00 C203.87,273.08 205.01,288.85 203.03,297.85 C199.24,315.01 186.59,331.18 170.97,338.84 C158.91,344.75 151.62,346.37 140.00,345.73 C119.47,344.59 102.25,334.64 90.99,317.39 C83.91,306.54 81.49,298.02 81.53,284.00 C81.56,273.94 81.91,271.51 84.40,264.59 C85.96,260.24 88.83,254.17 90.79,251.12 C100.79,235.48 119.53,223.97 135.50,223.64 L 142.50 223.50 L 142.78 234.75 C142.94,241.05 143.49,246.00 144.02,246.00 C144.55,246.00 154.98,238.46 167.21,229.25 C179.43,220.04 189.90,212.18 190.46,211.79 C190.71,211.62 190.98,211.55 191.05,211.39 C191.33,210.80 188.88,208.96 172.12,196.38 C170.44,195.11 168.61,193.74 166.63,192.25 C154.74,183.31 144.57,176.00 144.03,176.00 C143.47,176.00 142.94,181.17 142.78,188.23 L 142.50 200.46 L 137.50 201.20 C123.13,203.35 118.74,204.38 111.46,207.32 C80.01,220.03 60.03,250.05 60.01,284.59 C59.99,312.72 73.37,337.58 97.11,353.50 C108.66,361.25 121.74,365.72 136.50,366.94 ZM 234.50 231.48 C236.23,232.89 238.67,233.05 252.59,232.60 C271.84,231.98 285.66,230.09 304.61,225.46 C323.66,220.80 344.41,212.16 353.26,205.20 C359.26,200.47 366.83,191.73 369.49,186.44 L 372.49 180.50 L 372.84 159.25 C373.22,136.74 372.71,134.38 369.19,142.25 C368.15,144.59 364.83,149.05 361.82,152.16 C345.89,168.63 316.18,180.34 275.50,186.18 C264.67,187.74 215.49,187.86 206.25,186.35 C202.81,185.79 200.00,185.65 200.00,186.05 C200.00,186.44 201.69,188.05 203.75,189.61 C214.77,198.00 218.67,209.52 213.98,219.86 C212.89,222.26 212.00,224.39 212.00,224.61 C212.00,224.82 214.49,225.00 217.53,225.00 C223.04,225.00 229.69,227.54 234.50,231.48 ZM 225.00 354.49 C225.00,356.07 268.94,354.20 282.44,352.05 C328.61,344.68 358.81,329.54 369.52,308.38 L 372.49 302.50 L 372.86 280.75 C373.12,264.91 372.91,259.00 372.08,259.00 C371.45,259.00 370.69,259.79 370.39,260.75 C362.63,285.56 315.19,306.16 257.78,309.65 L 247.05 310.30 L 244.45 318.40 C241.49,327.64 234.62,340.93 228.90,348.52 C226.76,351.36 225.00,354.04 225.00,354.49 ZM 250.00 284.10 L 250.00 294.04 L 259.75 293.42 C269.59,292.80 292.46,289.65 298.97,288.03 C300.91,287.54 306.10,286.25 310.50,285.15 C320.52,282.64 336.02,276.34 345.90,270.77 C355.52,265.34 365.57,255.41 369.44,247.50 C372.35,241.55 372.37,241.32 372.81,220.25 C373.28,197.43 372.83,195.49 368.89,203.22 C363.71,213.37 354.14,221.56 338.08,229.59 C316.89,240.18 288.57,246.85 257.25,248.61 C250.51,248.99 245.00,249.70 245.00,250.19 C245.00,250.69 245.64,253.88 246.41,257.29 C249.51,270.89 250.00,274.54 250.00,284.10 ZM 109.35 180.82 C109.82,181.54 110.87,181.88 111.69,181.56 C112.51,181.25 114.24,180.73 115.53,180.40 C117.54,179.90 117.98,178.99 118.55,174.16 C119.25,168.20 121.99,160.74 123.91,159.56 C124.63,159.11 123.00,156.63 119.39,152.68 C116.28,149.28 112.89,144.61 111.84,142.29 C110.80,139.98 109.47,137.79 108.88,137.43 C107.59,136.63 108.04,178.79 109.35,180.82 Z" fill="rgb(10,29,73)" data-index="0" style="opacity: 1;"></path>
<path d="M 215.00 171.05 C192.73,169.20 169.12,163.82 163.31,159.28 C155.41,153.12 150.23,150.79 143.21,150.25 C137.39,149.81 135.61,149.15 129.77,145.31 C111.73,133.42 104.40,116.40 111.12,102.00 C114.10,95.64 121.01,87.63 127.90,82.57 C138.29,74.95 159.07,66.09 175.00,62.50 C179.12,61.57 183.83,60.39 185.46,59.88 C192.88,57.56 222.00,54.89 240.41,54.84 C284.37,54.72 324.02,63.99 350.00,80.48 C357.29,85.10 366.77,95.25 369.63,101.51 C372.64,108.07 373.02,117.63 370.52,123.61 C366.17,134.01 355.23,143.97 339.33,151.98 C323.62,159.90 302.56,166.11 280.00,169.48 C267.83,171.30 229.18,172.23 215.00,171.05 ZM 214.50 165.92 C220.52,167.44 267.85,166.48 276.50,164.67 C280.35,163.87 287.55,162.68 292.50,162.02 C297.45,161.37 306.70,159.07 313.06,156.92 C319.43,154.76 325.33,153.00 326.18,153.00 C327.03,153.00 328.80,152.16 330.12,151.14 C331.43,150.11 333.55,148.94 334.84,148.54 C343.07,145.96 362.00,131.24 362.00,127.42 C362.00,126.77 363.13,123.69 364.52,120.55 C366.90,115.16 366.96,114.61 365.63,110.12 C363.37,102.51 358.39,93.52 354.81,90.60 C344.77,82.38 323.43,71.92 311.50,69.38 C308.20,68.68 302.35,67.24 298.50,66.18 C280.95,61.36 273.00,60.57 242.02,60.53 C210.43,60.50 202.14,61.23 184.00,65.67 C178.23,67.09 171.58,68.63 169.23,69.10 C166.88,69.57 161.70,71.34 157.73,73.05 C153.75,74.76 148.93,76.83 147.00,77.65 C128.05,85.76 115.06,99.72 115.02,112.04 C115.00,118.32 117.69,126.95 120.72,130.27 C121.83,131.49 123.27,133.51 123.91,134.75 C124.55,135.99 125.48,137.00 125.98,137.00 C126.48,137.00 129.53,138.55 132.76,140.44 C135.99,142.33 140.85,144.40 143.56,145.03 C146.28,145.66 153.45,148.58 159.50,151.51 C165.55,154.44 172.30,157.57 174.49,158.47 C180.19,160.80 205.82,166.08 208.36,165.45 C209.54,165.16 212.30,165.37 214.50,165.92 ZM 136.50 366.94 C121.74,365.72 108.66,361.25 97.11,353.50 C73.37,337.58 59.99,312.72 60.01,284.59 C60.03,250.05 80.01,220.03 111.46,207.32 C118.74,204.38 123.13,203.35 137.50,201.20 L 142.50 200.46 L 142.78 188.23 C142.94,181.17 143.47,176.00 144.03,176.00 C144.57,176.00 154.74,183.31 166.63,192.25 C168.61,193.74 170.44,195.11 172.12,196.38 C188.88,208.96 191.33,210.80 191.05,211.39 C190.98,211.55 190.71,211.62 190.46,211.79 C189.90,212.18 179.43,220.04 167.21,229.25 C154.98,238.46 144.55,246.00 144.02,246.00 C143.49,246.00 142.94,241.05 142.78,234.75 L 142.50 223.50 L 135.50 223.64 C119.53,223.97 100.79,235.48 90.79,251.12 C88.83,254.17 85.96,260.24 84.40,264.59 C81.91,271.51 81.56,273.94 81.53,284.00 C81.49,298.02 83.91,306.54 90.99,317.39 C102.25,334.64 119.47,344.59 140.00,345.73 C151.62,346.37 158.91,344.75 170.97,338.84 C186.59,331.18 199.24,315.01 203.03,297.85 C205.01,288.85 203.87,273.08 200.57,264.00 C199.08,259.88 197.62,255.77 197.34,254.88 C196.92,253.54 198.51,252.97 206.67,251.52 C212.08,250.56 216.93,249.71 217.46,249.64 C219.22,249.38 224.06,265.31 225.22,275.20 C230.27,318.22 200.00,358.77 157.50,365.90 C147.96,367.50 145.00,367.65 136.50,366.94 ZM 234.50 231.48 C229.69,227.54 223.04,225.00 217.53,225.00 C214.49,225.00 212.00,224.82 212.00,224.61 C212.00,224.39 212.89,222.26 213.98,219.86 C218.67,209.52 214.77,198.00 203.75,189.61 C201.69,188.05 200.00,186.44 200.00,186.05 C200.00,185.65 202.81,185.79 206.25,186.35 C215.49,187.86 264.67,187.74 275.50,186.18 C316.18,180.34 345.89,168.63 361.82,152.16 C364.83,149.05 368.15,144.59 369.19,142.25 C372.71,134.38 373.22,136.74 372.84,159.25 L 372.49 180.50 L 369.49 186.44 C366.83,191.73 359.26,200.47 353.26,205.20 C344.41,212.16 323.66,220.80 304.61,225.46 C285.66,230.09 271.84,231.98 252.59,232.60 C238.67,233.05 236.23,232.89 234.50,231.48 ZM 225.00 354.49 C225.00,354.04 226.76,351.36 228.90,348.52 C234.62,340.93 241.49,327.64 244.45,318.40 L 247.05 310.30 L 257.78 309.65 C315.19,306.16 362.63,285.56 370.39,260.75 C370.69,259.79 371.45,259.00 372.08,259.00 C372.91,259.00 373.12,264.91 372.86,280.75 L 372.49 302.50 L 369.52 308.38 C358.81,329.54 328.61,344.68 282.44,352.05 C268.94,354.20 225.00,356.07 225.00,354.49 ZM 250.00 284.10 C250.00,274.54 249.51,270.89 246.41,257.29 C245.64,253.88 245.00,250.69 245.00,250.19 C245.00,249.70 250.51,248.99 257.25,248.61 C288.57,246.85 316.89,240.18 338.08,229.59 C354.14,221.56 363.71,213.37 368.89,203.22 C372.83,195.49 373.28,197.43 372.81,220.25 C372.37,241.32 372.35,241.55 369.44,247.50 C365.57,255.41 355.52,265.34 345.90,270.77 C336.02,276.34 320.52,282.64 310.50,285.15 C306.10,286.25 300.91,287.54 298.97,288.03 C292.46,289.65 269.59,292.80 259.75,293.42 L 250.00 294.04 ZM 239.93 227.08 C243.34,229.21 287.50,225.09 300.00,221.48 C303.02,220.60 307.86,219.46 310.74,218.93 C315.17,218.12 337.20,209.47 340.57,207.22 C341.16,206.82 343.86,205.07 346.57,203.31 C356.28,197.04 358.60,194.65 361.92,187.58 C363.70,183.78 365.63,177.99 366.20,174.73 C367.14,169.43 367.04,168.53 365.27,166.15 C361.84,161.53 357.00,162.37 345.50,169.58 C339.00,173.65 326.32,179.69 322.50,180.52 C320.85,180.89 316.12,182.22 312.00,183.49 C304.91,185.67 297.19,187.38 287.00,189.03 C284.52,189.44 280.23,190.24 277.45,190.82 C274.67,191.40 263.87,192.14 253.45,192.47 C223.73,193.41 222.69,193.56 220.55,197.18 C218.29,201.02 218.89,208.90 221.89,214.79 C224.07,219.05 231.56,224.87 235.89,225.66 C237.25,225.90 239.07,226.55 239.93,227.08 ZM 129.00 360.09 C131.48,360.52 137.77,360.61 143.00,360.31 C148.23,360.00 154.75,359.65 157.50,359.54 C164.09,359.26 169.39,357.34 179.07,351.73 C189.08,345.93 191.90,343.88 192.51,341.98 C192.83,340.95 193.94,339.84 194.97,339.51 C197.72,338.64 207.93,326.27 210.22,321.03 C211.32,318.54 213.13,314.72 214.26,312.54 C217.34,306.57 219.15,294.87 219.03,281.63 C218.90,267.25 217.70,263.48 213.02,262.79 C208.74,262.16 206.61,264.31 207.44,268.41 C210.06,281.37 209.95,295.76 207.16,303.08 C203.68,312.23 196.48,325.10 192.57,329.17 C186.70,335.28 176.65,342.30 171.00,344.23 C168.52,345.08 162.53,347.18 157.67,348.89 C148.26,352.21 139.55,352.95 134.32,350.89 C132.77,350.28 128.80,349.15 125.50,348.38 C116.34,346.25 106.07,340.59 97.50,332.94 C90.24,326.46 88.30,323.95 84.74,316.50 C83.95,314.85 82.57,312.88 81.65,312.13 C80.70,311.34 80.00,309.30 80.00,307.33 C80.00,305.44 79.25,302.46 78.33,300.70 C74.39,293.13 76.13,265.11 80.97,258.07 C81.95,256.66 83.89,253.48 85.30,251.00 C88.68,245.03 99.95,232.85 105.64,229.01 C114.27,223.19 120.22,220.75 127.97,219.89 C137.53,218.81 142.44,220.02 144.47,223.94 C145.28,225.52 147.46,227.74 149.29,228.87 C152.11,230.61 153.22,230.78 156.29,229.93 C160.20,228.85 163.71,226.31 171.25,219.11 C175.21,215.33 176.00,213.97 176.00,210.94 C176.00,207.81 175.19,206.53 170.21,201.78 C167.02,198.74 162.44,195.25 160.04,194.02 C154.09,190.98 149.46,192.27 146.30,197.84 C144.21,201.52 139.07,205.00 135.72,205.00 C134.91,205.00 133.68,205.68 133.00,206.50 C132.32,207.32 130.42,208.00 128.78,208.00 C127.15,208.00 124.61,208.65 123.15,209.44 C121.69,210.23 116.85,212.05 112.39,213.48 C107.60,215.01 103.34,217.07 101.98,218.52 C100.72,219.86 98.76,221.26 97.64,221.62 C95.14,222.41 79.90,238.22 78.49,241.47 C77.93,242.76 76.72,244.65 75.81,245.66 C72.06,249.80 67.14,266.95 66.01,279.79 C65.17,289.36 65.28,290.60 67.55,297.57 C68.90,301.69 70.00,306.89 70.00,309.13 C70.00,312.31 70.62,313.78 72.84,315.85 C74.45,317.36 75.98,320.09 76.37,322.15 C76.81,324.51 78.72,327.60 81.78,330.89 C84.37,333.69 87.80,337.59 89.40,339.55 C90.99,341.51 93.91,343.99 95.90,345.07 C97.88,346.14 101.70,348.60 104.38,350.53 C107.06,352.45 110.44,354.28 111.88,354.59 C113.32,354.90 115.40,355.56 116.50,356.06 C121.39,358.26 124.81,359.37 129.00,360.09 ZM 247.26 349.30 C251.95,350.20 286.14,346.82 297.50,344.33 C310.88,341.40 324.51,337.13 329.00,334.47 C330.92,333.33 334.08,331.93 336.00,331.36 C340.62,329.99 348.87,323.96 356.62,316.29 C361.93,311.04 363.21,309.05 364.95,303.43 C367.51,295.12 367.53,291.38 365.01,287.25 C362.37,282.92 360.19,283.08 351.58,288.27 C334.33,298.67 308.58,308.32 293.50,310.03 C289.10,310.53 283.07,311.60 280.11,312.41 C277.14,313.23 273.49,313.65 271.98,313.35 C270.44,313.04 266.70,313.68 263.38,314.83 C260.14,315.95 256.38,317.11 255.00,317.41 C252.32,318.00 249.19,322.13 244.75,330.97 C240.36,339.71 241.52,348.19 247.26,349.30 ZM 263.16 286.99 C265.55,287.99 271.58,287.66 280.50,286.03 C283.25,285.53 290.00,284.35 295.50,283.42 C301.00,282.49 307.88,280.88 310.79,279.86 C313.70,278.84 316.76,278.00 317.60,278.00 C319.05,278.00 323.67,276.04 336.00,270.19 C351.11,263.02 362.36,252.61 364.69,243.61 C366.33,237.28 366.40,226.80 364.80,225.20 C362.56,222.96 357.81,223.98 350.14,228.35 C345.94,230.74 341.15,233.40 339.50,234.25 C323.52,242.50 297.22,249.55 273.50,251.95 C262.51,253.06 260.08,253.93 256.66,257.99 C254.34,260.75 254.00,262.04 254.00,268.11 C254.00,277.60 257.37,284.54 263.16,286.99 ZM 109.35 180.82 C108.04,178.79 107.59,136.63 108.88,137.43 C109.47,137.79 110.80,139.98 111.84,142.29 C112.89,144.61 116.28,149.28 119.39,152.68 C123.00,156.63 124.63,159.11 123.91,159.56 C121.99,160.74 119.25,168.20 118.55,174.16 C117.98,178.99 117.54,179.90 115.53,180.40 C114.24,180.73 112.51,181.25 111.69,181.56 C110.87,181.88 109.82,181.54 109.35,180.82 Z" fill="rgb(35,81,188)" data-index="1" style="opacity: 1;"></path>
<path d="M 214.50 165.92 C212.30,165.37 209.54,165.16 208.36,165.45 C205.82,166.08 180.19,160.80 174.49,158.47 C172.30,157.57 165.55,154.44 159.50,151.51 C153.45,148.58 146.28,145.66 143.56,145.03 C140.85,144.40 135.99,142.33 132.76,140.44 C129.53,138.55 126.48,137.00 125.98,137.00 C125.48,137.00 124.55,135.99 123.91,134.75 C123.27,133.51 121.83,131.49 120.72,130.27 C117.69,126.95 115.00,118.32 115.02,112.04 C115.06,99.72 128.05,85.76 147.00,77.65 C148.93,76.83 153.75,74.76 157.73,73.05 C161.70,71.34 166.88,69.57 169.23,69.10 C171.58,68.63 178.23,67.09 184.00,65.67 C202.14,61.23 210.43,60.50 242.02,60.53 C273.00,60.57 280.95,61.36 298.50,66.18 C302.35,67.24 308.20,68.68 311.50,69.38 C323.43,71.92 344.77,82.38 354.81,90.60 C358.39,93.52 363.37,102.51 365.63,110.12 C366.96,114.61 366.90,115.16 364.52,120.55 C363.13,123.69 362.00,126.77 362.00,127.42 C362.00,131.24 343.07,145.96 334.84,148.54 C333.55,148.94 331.43,150.11 330.12,151.14 C328.80,152.16 327.03,153.00 326.18,153.00 C325.33,153.00 319.43,154.76 313.06,156.92 C306.70,159.07 297.45,161.37 292.50,162.02 C287.55,162.68 280.35,163.87 276.50,164.67 C267.85,166.48 220.52,167.44 214.50,165.92 ZM 239.93 227.08 C239.07,226.55 237.25,225.90 235.89,225.66 C231.56,224.87 224.07,219.05 221.89,214.79 C218.89,208.90 218.29,201.02 220.55,197.18 C222.69,193.56 223.73,193.41 253.45,192.47 C263.87,192.14 274.67,191.40 277.45,190.82 C280.23,190.24 284.52,189.44 287.00,189.03 C297.19,187.38 304.91,185.67 312.00,183.49 C316.12,182.22 320.85,180.89 322.50,180.52 C326.32,179.69 339.00,173.65 345.50,169.58 C357.00,162.37 361.84,161.53 365.27,166.15 C367.04,168.53 367.14,169.43 366.20,174.73 C365.63,177.99 363.70,183.78 361.92,187.58 C358.60,194.65 356.28,197.04 346.57,203.31 C343.86,205.07 341.16,206.82 340.57,207.22 C337.20,209.47 315.17,218.12 310.74,218.93 C307.86,219.46 303.02,220.60 300.00,221.48 C287.50,225.09 243.34,229.21 239.93,227.08 ZM 129.00 360.09 C124.81,359.37 121.39,358.26 116.50,356.06 C115.40,355.56 113.32,354.90 111.88,354.59 C110.44,354.28 107.06,352.45 104.38,350.53 C101.70,348.60 97.88,346.14 95.90,345.07 C93.91,343.99 90.99,341.51 89.40,339.55 C87.80,337.59 84.37,333.69 81.78,330.89 C78.72,327.60 76.81,324.51 76.37,322.15 C75.98,320.09 74.45,317.36 72.84,315.85 C70.62,313.78 70.00,312.31 70.00,309.13 C70.00,306.89 68.90,301.69 67.55,297.57 C65.28,290.60 65.17,289.36 66.01,279.79 C67.14,266.95 72.06,249.80 75.81,245.66 C76.72,244.65 77.93,242.76 78.49,241.47 C79.90,238.22 95.14,222.41 97.64,221.62 C98.76,221.26 100.72,219.86 101.98,218.52 C103.34,217.07 107.60,215.01 112.39,213.48 C116.85,212.05 121.69,210.23 123.15,209.44 C124.61,208.65 127.15,208.00 128.78,208.00 C130.42,208.00 132.32,207.32 133.00,206.50 C133.68,205.68 134.91,205.00 135.72,205.00 C139.07,205.00 144.21,201.52 146.30,197.84 C149.46,192.27 154.09,190.98 160.04,194.02 C162.44,195.25 167.02,198.74 170.21,201.78 C175.19,206.53 176.00,207.81 176.00,210.94 C176.00,213.97 175.21,215.33 171.25,219.11 C163.71,226.31 160.20,228.85 156.29,229.93 C153.22,230.78 152.11,230.61 149.29,228.87 C147.46,227.74 145.28,225.52 144.47,223.94 C142.44,220.02 137.53,218.81 127.97,219.89 C120.22,220.75 114.27,223.19 105.64,229.01 C99.95,232.85 88.68,245.03 85.30,251.00 C83.89,253.48 81.95,256.66 80.97,258.07 C76.13,265.11 74.39,293.13 78.33,300.70 C79.25,302.46 80.00,305.44 80.00,307.33 C80.00,309.30 80.70,311.34 81.65,312.13 C82.57,312.88 83.95,314.85 84.74,316.50 C88.30,323.95 90.24,326.46 97.50,332.94 C106.07,340.59 116.34,346.25 125.50,348.38 C128.80,349.15 132.77,350.28 134.32,350.89 C139.55,352.95 148.26,352.21 157.67,348.89 C162.53,347.18 168.52,345.08 171.00,344.23 C176.65,342.30 186.70,335.28 192.57,329.17 C196.48,325.10 203.68,312.23 207.16,303.08 C209.95,295.76 210.06,281.37 207.44,268.41 C206.61,264.31 208.74,262.16 213.02,262.79 C217.70,263.48 218.90,267.25 219.03,281.63 C219.15,294.87 217.34,306.57 214.26,312.54 C213.13,314.72 211.32,318.54 210.22,321.03 C207.93,326.27 197.72,338.64 194.97,339.51 C193.94,339.84 192.83,340.95 192.51,341.98 C191.90,343.88 189.08,345.93 179.07,351.73 C169.39,357.34 164.09,359.26 157.50,359.54 C154.75,359.65 148.23,360.00 143.00,360.31 C137.77,360.61 131.48,360.52 129.00,360.09 ZM 247.26 349.30 C241.52,348.19 240.36,339.71 244.75,330.97 C249.19,322.13 252.32,318.00 255.00,317.41 C256.38,317.11 260.14,315.95 263.38,314.83 C266.70,313.68 270.44,313.04 271.98,313.35 C273.49,313.65 277.14,313.23 280.11,312.41 C283.07,311.60 289.10,310.53 293.50,310.03 C308.58,308.32 334.33,298.67 351.58,288.27 C360.19,283.08 362.37,282.92 365.01,287.25 C367.53,291.38 367.51,295.12 364.95,303.43 C363.21,309.05 361.93,311.04 356.62,316.29 C348.87,323.96 340.62,329.99 336.00,331.36 C334.08,331.93 330.92,333.33 329.00,334.47 C324.51,337.13 310.88,341.40 297.50,344.33 C286.14,346.82 251.95,350.20 247.26,349.30 ZM 263.16 286.99 C257.37,284.54 254.00,277.60 254.00,268.11 C254.00,262.04 254.34,260.75 256.66,257.99 C260.08,253.93 262.51,253.06 273.50,251.95 C297.22,249.55 323.52,242.50 339.50,234.25 C341.15,233.40 345.94,230.74 350.14,228.35 C357.81,223.98 362.56,222.96 364.80,225.20 C366.40,226.80 366.33,237.28 364.69,243.61 C362.36,252.61 351.11,263.02 336.00,270.19 C323.67,276.04 319.05,278.00 317.60,278.00 C316.76,278.00 313.70,278.84 310.79,279.86 C307.88,280.88 301.00,282.49 295.50,283.42 C290.00,284.35 283.25,285.53 280.50,286.03 C271.58,287.66 265.55,287.99 263.16,286.99 Z" fill="rgb(38,98,236)" data-index="2" style="opacity: 1;"></path>

</g>
</svg>