<?xml version="1.0" encoding="UTF-8"?>
<svg version="1.1" xmlns="http://www.w3.org/2000/svg" width="432" height="428">
<path d="M0 0 C1.98913045 -0.00082235 3.97826094 -0.00165165 5.96739113 -0.00294948 C13.67000595 -0.00794301 21.3725952 -0.00366115 29.07520676 0.00383759 C32.69281387 0.0073441 36.31042044 0.00960352 39.92802876 0.01141632 C107.17614796 0.04513284 107.17614796 0.04513284 138.63013077 0.48069 C140.61442481 0.50740714 142.59876273 0.53079829 144.58309937 0.55413818 C179.48169041 0.98893937 179.48169041 0.98893937 195.14453125 5.4453125 C196.33405396 5.77450684 196.33405396 5.77450684 197.54760742 6.11035156 C211.45811386 10.09006874 224.46492402 17.38203438 235.20703125 27.1328125 C235.20703125 27.7928125 235.20703125 28.4528125 235.20703125 29.1328125 C235.78839844 29.38160156 236.36976563 29.63039063 236.96875 29.88671875 C249.66209395 36.95334479 256.83631387 54.96636573 261.20703125 68.1328125 C265.21547738 83.09263599 266.46159051 98.81119546 266.82373047 114.2409668 C266.86163627 115.6666899 266.89961704 117.09241101 266.93766594 118.5181303 C267.35065149 134.94742451 267.35405404 151.38007771 267.34135675 167.81350541 C267.33875526 172.26480551 267.34119176 176.71610396 267.34274292 181.16740417 C267.34454316 188.63414895 267.3422162 196.10088371 267.33740234 203.56762695 C267.33196999 212.08987 267.33372376 220.61208906 267.33922875 229.13433152 C267.34382932 236.56564877 267.34437699 243.99695898 267.34179008 251.42827719 C267.340264 255.81640906 267.3399282 260.20452984 267.34332657 264.5926609 C267.35509498 282.30672037 267.24362507 300.00892951 266.77685547 317.7175293 C266.7493387 318.82708904 266.7493387 318.82708904 266.72126603 319.95906413 C266.08118315 345.05949319 263.45794602 368.75644034 249.20703125 390.1328125 C248.54703125 390.1328125 247.88703125 390.1328125 247.20703125 390.1328125 C247.20703125 391.1228125 247.20703125 392.1128125 247.20703125 393.1328125 C246.07958044 394.32859367 244.93740257 395.51309709 243.734375 396.6328125 C242.07364295 398.26381277 240.67018575 400.01052539 239.20703125 401.8203125 C235.99260595 405.53035404 232.43653398 408.55871156 228.58203125 411.5703125 C228.03160156 412.00754639 227.48117187 412.44478027 226.9140625 412.89526367 C223.73362335 415.31555871 221.20572766 416.72402383 217.20703125 417.1328125 C217.20703125 417.7928125 217.20703125 418.4528125 217.20703125 419.1328125 C208.30481969 423.93498657 201.2218676 426.01154821 191.13876343 425.8812561 C189.88993366 425.88920492 188.64110389 425.89715373 187.35443079 425.90534341 C183.92682334 425.92113714 180.50125336 425.91040593 177.07381582 425.88784242 C173.36278127 425.87002307 169.65187544 425.8870839 165.94084167 425.89956665 C158.68699554 425.91846772 151.43354952 425.90541005 144.17973326 425.88104077 C135.7219779 425.85369323 127.26431603 425.85708584 118.80652769 425.86130743 C103.71110595 425.86767606 88.61587344 425.84441472 73.52050781 425.80517578 C58.89121745 425.76715867 44.26214873 425.75300558 29.6328125 425.76416016 C13.67795379 425.77628954 -2.27680767 425.77589741 -18.23165834 425.75318849 C-19.93444148 425.75077406 -21.63722463 425.74836209 -23.34000778 425.74595261 C-24.17767874 425.74474553 -25.0153497 425.74353845 -25.87840462 425.7422948 C-31.76645767 425.73455355 -37.65447439 425.73531704 -43.54253006 425.7391243 C-50.72173985 425.74337871 -57.9007561 425.73284067 -65.07991149 425.70389719 C-68.73908188 425.68946066 -72.39797115 425.68121068 -76.05716515 425.69038391 C-80.03118679 425.70010374 -84.00470216 425.67861325 -87.97866821 425.65420532 C-89.12449863 425.66176397 -90.27032905 425.66932262 -91.4508816 425.67711031 C-100.79523644 425.57584288 -108.99691189 423.44593592 -116.79296875 418.1328125 C-116.79296875 417.4728125 -116.79296875 416.8128125 -116.79296875 416.1328125 C-117.51871094 416.03871094 -118.24445313 415.94460938 -118.9921875 415.84765625 C-122.22361425 415.02289879 -124.00928618 413.76623093 -126.60546875 411.6953125 C-127.39566406 411.07785156 -128.18585938 410.46039063 -129 409.82421875 C-129.88751953 408.98697266 -129.88751953 408.98697266 -130.79296875 408.1328125 C-130.79296875 407.4728125 -130.79296875 406.8128125 -130.79296875 406.1328125 C-131.34984375 405.9265625 -131.90671875 405.7203125 -132.48046875 405.5078125 C-135.05483857 403.97710612 -136.6242993 402.12075753 -138.44921875 399.765625 C-139.81108512 398.04651651 -139.81108512 398.04651651 -141.64453125 396.3515625 C-159.39781763 378.01725947 -163.53575264 350.56804613 -164.10498047 326.02148438 C-164.12547077 325.23477859 -164.14596107 324.44807281 -164.1670723 323.63752747 C-164.23340213 320.95897616 -164.29150512 318.28034595 -164.34765625 315.6015625 C-164.37906015 314.15703957 -164.37906015 314.15703957 -164.41109848 312.68333435 C-165.08906179 280.36184103 -164.94328447 248.02687825 -164.92153811 215.70007706 C-164.91720179 208.50022981 -164.92029723 201.30040013 -164.92516625 194.10055399 C-164.92975479 187.0206578 -164.93032128 179.940769 -164.92772758 172.86087179 C-164.92620021 168.68886499 -164.92587047 164.51686986 -164.92926407 160.34486389 C-164.97018603 101.95359844 -164.97018603 101.95359844 -161.79296875 82.1328125 C-161.58800781 80.83601563 -161.38304687 79.53921875 -161.171875 78.203125 C-157.16157397 55.68199946 -144.78528122 36.16681623 -126.79296875 22.1328125 C-125.13635114 21.11625169 -123.47185316 20.11216174 -121.79296875 19.1328125 C-121.20515625 18.47152344 -121.20515625 18.47152344 -120.60546875 17.796875 C-92.87977129 -7.65818344 -34.811611 -0.03056362 0 0 Z " fill="#171B2B" transform="translate(164.79296875,2.8671875)"/>
<path d="M0 0 C1.98913045 -0.00082235 3.97826094 -0.00165165 5.96739113 -0.00294948 C13.67000595 -0.00794301 21.3725952 -0.00366115 29.07520676 0.00383759 C32.69281387 0.0073441 36.31042044 0.00960352 39.92802876 0.01141632 C107.17614796 0.04513284 107.17614796 0.04513284 138.63013077 0.48069 C140.61442481 0.50740714 142.59876273 0.53079829 144.58309937 0.55413818 C179.48169041 0.98893937 179.48169041 0.98893937 195.14453125 5.4453125 C196.33405396 5.77450684 196.33405396 5.77450684 197.54760742 6.11035156 C211.45811386 10.09006874 224.46492402 17.38203438 235.20703125 27.1328125 C235.20703125 27.7928125 235.20703125 28.4528125 235.20703125 29.1328125 C235.78839844 29.38160156 236.36976563 29.63039063 236.96875 29.88671875 C249.66209395 36.95334479 256.83631387 54.96636573 261.20703125 68.1328125 C265.21547738 83.09263599 266.46159051 98.81119546 266.82373047 114.2409668 C266.86163627 115.6666899 266.89961704 117.09241101 266.93766594 118.5181303 C267.35065149 134.94742451 267.35405404 151.38007771 267.34135675 167.81350541 C267.33875526 172.26480551 267.34119176 176.71610396 267.34274292 181.16740417 C267.34454316 188.63414895 267.3422162 196.10088371 267.33740234 203.56762695 C267.33196999 212.08987 267.33372376 220.61208906 267.33922875 229.13433152 C267.34382932 236.56564877 267.34437699 243.99695898 267.34179008 251.42827719 C267.340264 255.81640906 267.3399282 260.20452984 267.34332657 264.5926609 C267.35509498 282.30672037 267.24362507 300.00892951 266.77685547 317.7175293 C266.7493387 318.82708904 266.7493387 318.82708904 266.72126603 319.95906413 C266.08118315 345.05949319 263.45794602 368.75644034 249.20703125 390.1328125 C248.54703125 390.1328125 247.88703125 390.1328125 247.20703125 390.1328125 C247.20703125 391.1228125 247.20703125 392.1128125 247.20703125 393.1328125 C246.07958044 394.32859367 244.93740257 395.51309709 243.734375 396.6328125 C242.07364295 398.26381277 240.67018575 400.01052539 239.20703125 401.8203125 C235.99260595 405.53035404 232.43653398 408.55871156 228.58203125 411.5703125 C228.03160156 412.00754639 227.48117187 412.44478027 226.9140625 412.89526367 C223.73362335 415.31555871 221.20572766 416.72402383 217.20703125 417.1328125 C217.20703125 417.7928125 217.20703125 418.4528125 217.20703125 419.1328125 C208.30481969 423.93498657 201.2218676 426.01154821 191.13876343 425.8812561 C189.88993366 425.88920492 188.64110389 425.89715373 187.35443079 425.90534341 C183.92682334 425.92113714 180.50125336 425.91040593 177.07381582 425.88784242 C173.36278127 425.87002307 169.65187544 425.8870839 165.94084167 425.89956665 C158.68699554 425.91846772 151.43354952 425.90541005 144.17973326 425.88104077 C135.7219779 425.85369323 127.26431603 425.85708584 118.80652769 425.86130743 C103.71110595 425.86767606 88.61587344 425.84441472 73.52050781 425.80517578 C58.89121745 425.76715867 44.26214873 425.75300558 29.6328125 425.76416016 C13.67795379 425.77628954 -2.27680767 425.77589741 -18.23165834 425.75318849 C-19.93444148 425.75077406 -21.63722463 425.74836209 -23.34000778 425.74595261 C-24.17767874 425.74474553 -25.0153497 425.74353845 -25.87840462 425.7422948 C-31.76645767 425.73455355 -37.65447439 425.73531704 -43.54253006 425.7391243 C-50.72173985 425.74337871 -57.9007561 425.73284067 -65.07991149 425.70389719 C-68.73908188 425.68946066 -72.39797115 425.68121068 -76.05716515 425.69038391 C-80.03118679 425.70010374 -84.00470216 425.67861325 -87.97866821 425.65420532 C-89.12449863 425.66176397 -90.27032905 425.66932262 -91.4508816 425.67711031 C-100.79523644 425.57584288 -108.99691189 423.44593592 -116.79296875 418.1328125 C-116.79296875 417.4728125 -116.79296875 416.8128125 -116.79296875 416.1328125 C-117.51871094 416.03871094 -118.24445313 415.94460938 -118.9921875 415.84765625 C-122.22361425 415.02289879 -124.00928618 413.76623093 -126.60546875 411.6953125 C-127.39566406 411.07785156 -128.18585938 410.46039063 -129 409.82421875 C-129.88751953 408.98697266 -129.88751953 408.98697266 -130.79296875 408.1328125 C-130.79296875 407.4728125 -130.79296875 406.8128125 -130.79296875 406.1328125 C-131.34984375 405.9265625 -131.90671875 405.7203125 -132.48046875 405.5078125 C-135.05483857 403.97710612 -136.6242993 402.12075753 -138.44921875 399.765625 C-139.81108512 398.04651651 -139.81108512 398.04651651 -141.64453125 396.3515625 C-159.39781763 378.01725947 -163.53575264 350.56804613 -164.10498047 326.02148438 C-164.12547077 325.23477859 -164.14596107 324.44807281 -164.1670723 323.63752747 C-164.23340213 320.95897616 -164.29150512 318.28034595 -164.34765625 315.6015625 C-164.37906015 314.15703957 -164.37906015 314.15703957 -164.41109848 312.68333435 C-165.08906179 280.36184103 -164.94328447 248.02687825 -164.92153811 215.70007706 C-164.91720179 208.50022981 -164.92029723 201.30040013 -164.92516625 194.10055399 C-164.92975479 187.0206578 -164.93032128 179.940769 -164.92772758 172.86087179 C-164.92620021 168.68886499 -164.92587047 164.51686986 -164.92926407 160.34486389 C-164.97018603 101.95359844 -164.97018603 101.95359844 -161.79296875 82.1328125 C-161.58800781 80.83601563 -161.38304687 79.53921875 -161.171875 78.203125 C-157.16157397 55.68199946 -144.78528122 36.16681623 -126.79296875 22.1328125 C-125.13635114 21.11625169 -123.47185316 20.11216174 -121.79296875 19.1328125 C-121.20515625 18.47152344 -121.20515625 18.47152344 -120.60546875 17.796875 C-92.87977129 -7.65818344 -34.811611 -0.03056362 0 0 Z M-53.79296875 71.1328125 C-55.02660156 72.05900391 -55.02660156 72.05900391 -56.28515625 73.00390625 C-88.72202937 98.2928362 -110.87496543 133.06970113 -119.79296875 173.1328125 C-119.99535156 173.91269531 -120.19773438 174.69257813 -120.40625 175.49609375 C-128.04157003 205.51280989 -124.83399133 241.36048229 -113.79296875 270.1328125 C-113.43589844 271.06738281 -113.07882813 272.00195312 -112.7109375 272.96484375 C-103.92772359 294.90819088 -92.32996198 314.69014483 -75.51806641 331.40478516 C-73.97753277 332.94793504 -72.47808751 334.51779679 -70.9921875 336.11328125 C-55.39446288 352.51574431 -36.30408648 363.96748786 -15.83398438 373.2109375 C-14.23635884 373.93254444 -12.64600187 374.67024841 -11.05859375 375.4140625 C27.37551676 392.31416783 74.35387821 388.91936152 112.89453125 374.8203125 C115.00943053 373.95011957 117.1127543 373.05152833 119.20703125 372.1328125 C119.89796875 371.83568359 120.58890625 371.53855469 121.30078125 371.23242188 C139.21181259 363.45768481 156.4160843 353.08720771 170.20703125 339.1328125 C171.16113514 338.1988576 172.11691355 337.26661078 173.07421875 336.3359375 C178.9593243 330.5777371 184.32952212 324.78600468 189.20703125 318.1328125 C189.89023437 317.2665625 190.5734375 316.4003125 191.27734375 315.5078125 C202.15074246 301.56561486 209.80694623 286.55982612 216.20703125 270.1328125 C216.65175781 269.02292969 217.09648437 267.91304687 217.5546875 266.76953125 C219.58986711 261.49557118 220.68635662 256.75609848 221.20703125 251.1328125 C221.53703125 250.8028125 221.86703125 250.4728125 222.20703125 250.1328125 C222.60893154 248.24652137 222.95360478 246.34789194 223.26953125 244.4453125 C223.44613281 243.41019531 223.62273437 242.37507812 223.8046875 241.30859375 C223.93746094 240.26058594 224.07023437 239.21257812 224.20703125 238.1328125 C224.40941406 237.14539063 224.61179687 236.15796875 224.8203125 235.140625 C224.07952122 231.50744485 223.31388744 231.09482405 220.40234375 228.94921875 C218.72554356 227.84412726 217.03449585 226.76044176 215.33203125 225.6953125 C213.588509 224.55473743 211.84501914 223.41411285 210.1015625 222.2734375 C209.25803223 221.73267578 208.41450195 221.19191406 207.54541016 220.63476562 C204.66764036 218.78635888 201.83616285 216.88556813 199.01953125 214.9453125 C198.26285156 214.43613281 197.50617188 213.92695313 196.7265625 213.40234375 C196.22511719 212.98339844 195.72367187 212.56445312 195.20703125 212.1328125 C195.20703125 211.4728125 195.20703125 210.8128125 195.20703125 210.1328125 C197.56940915 208.35875464 199.93600988 206.70181089 202.39453125 205.0703125 C203.85695355 204.08360409 205.31919024 203.09662052 206.78125 202.109375 C207.52036621 201.6134082 208.25948242 201.11744141 209.02099609 200.60644531 C212.27047945 198.41592917 215.48939266 196.18222469 218.70703125 193.9453125 C219.76921875 193.20925781 220.83140625 192.47320312 221.92578125 191.71484375 C222.67859375 191.19277344 223.43140625 190.67070312 224.20703125 190.1328125 C223.27566019 147.71309428 196.67977096 108.42783819 167.33984375 79.9609375 C156.50117137 69.73885156 144.38191775 62.05120555 131.21386719 55.18310547 C129.45303997 54.26156305 127.7075622 53.31081441 125.96484375 52.35546875 C70.26673141 22.69509185 -4.98132088 33.3219987 -53.79296875 71.1328125 Z " fill="#091B46" transform="translate(164.79296875,2.8671875)"/>
<path d="M0 0 C1.90458984 0.01305176 1.90458984 0.01305176 3.84765625 0.02636719 C12.7884173 0.16635344 20.94005994 0.89294591 29.5625 3.375 C30.62339844 3.63023438 31.68429688 3.88546875 32.77734375 4.1484375 C47.49093855 8.03639346 60.00958192 16.74756826 71.5625 26.375 C72.51898438 27.15488281 73.47546875 27.93476563 74.4609375 28.73828125 C94.21387912 45.64170889 105.36446219 70.93437752 108.5625 96.375 C109.38546087 107.13452429 108.95174314 117.8378251 106.5625 128.375 C106.40265625 129.261875 106.2428125 130.14875 106.078125 131.0625 C102.2370253 149.74893097 91.62186282 168.62410269 78.5625 182.375 C77.9025 182.375 77.2425 182.375 76.5625 182.375 C76.5625 183.035 76.5625 183.695 76.5625 184.375 C65.6830733 194.8769772 52.79519093 202.51245971 38.5625 207.375 C37.29803144 207.87332853 36.03371842 208.37205182 34.76953125 208.87109375 C17.31905008 215.42849546 -1.30694156 215.9465464 -19.4375 212.375 C-20.24574219 212.230625 -21.05398437 212.08625 -21.88671875 211.9375 C-27.71488344 210.79831249 -32.9989993 208.72456375 -38.4375 206.375 C-39.29085937 206.02695312 -40.14421875 205.67890625 -41.0234375 205.3203125 C-58.74263599 197.78575596 -75.80467466 184.62948658 -86.4375 168.375 C-85.4375 165.375 -85.4375 165.375 -82.70703125 163.875 C-81.56621094 163.38 -80.42539063 162.885 -79.25 162.375 C-75.83374499 160.87575209 -72.45919506 159.38609144 -69.13671875 157.6875 C-66.4375 156.375 -66.4375 156.375 -64.4375 156.375 C-60.4375 160.84558824 -60.4375 160.84558824 -60.4375 163.375 C-59.4475 163.705 -58.4575 164.035 -57.4375 164.375 C-55.20092161 166.54767615 -53.02202538 168.76581722 -50.86328125 171.015625 C-35.94067619 185.38793877 -13.72731111 189.72514197 6.125 189.5234375 C16.97422432 189.29741199 25.77863076 187.06128641 35.5625 182.375 C36.62597656 181.8696875 37.68945312 181.364375 38.78515625 180.84375 C46.17749332 177.10793246 57.67761462 171.14477077 61.5625 163.375 C62.2225 163.375 62.8825 163.375 63.5625 163.375 C63.95695312 162.52228516 63.95695312 162.52228516 64.359375 161.65234375 C65.64827679 159.21263678 67.15925518 157.14554995 68.8125 154.9375 C72.93970299 149.11642412 75.79782362 142.93267752 78.5625 136.375 C78.8821875 135.61960938 79.201875 134.86421875 79.53125 134.0859375 C86.70461437 116.08079293 85.39317594 93.81883651 78.15307617 76.02905273 C69.28923486 55.50011828 53.66572095 40.03913343 33.5625 30.375 C30.67254483 29.38577329 27.85082677 28.58919818 24.8671875 27.9453125 C22.5625 27.375 22.5625 27.375 20.81298828 26.35595703 C17.85867076 25.06821047 15.46901834 25.11587244 12.25 25.109375 C10.38794922 25.10550781 10.38794922 25.10550781 8.48828125 25.1015625 C7.19277344 25.10929687 5.89726562 25.11703125 4.5625 25.125 C2.66564453 25.11339844 2.66564453 25.11339844 0.73046875 25.1015625 C-17.2711003 25.13864091 -31.54697089 29.14542729 -46.4375 39.375 C-47.55125 40.07625 -48.665 40.7775 -49.8125 41.5 C-61.71416025 50.0011859 -72.69596649 64.9744153 -76.15234375 79.34765625 C-76.29349609 80.35119141 -76.29349609 80.35119141 -76.4375 81.375 C-75.80328125 81.51035156 -75.1690625 81.64570313 -74.515625 81.78515625 C-64.21343834 84.16148936 -54.36770344 87.78450953 -44.4375 91.375 C-46.74723188 94.83959783 -47.6640086 94.97721375 -51.4375 96.375 C-53.57384461 97.49954024 -55.69741037 98.6484747 -57.8125 99.8125 C-65.59260879 104.04282156 -73.56614022 107.83972032 -81.57958984 111.60522461 C-82.52527832 112.0513208 -83.4709668 112.49741699 -84.4453125 112.95703125 C-85.28723145 113.35124268 -86.12915039 113.7454541 -86.99658203 114.15161133 C-89.56189001 115.4373443 -91.98262809 116.89130584 -94.4375 118.375 C-97.40909217 119.67960144 -100.28969424 120.61633223 -103.4375 121.375 C-111.23313024 107.46112427 -118.43633987 93.37315794 -125.21972656 78.94091797 C-127.86297035 73.37145282 -130.64637185 67.87152198 -133.4375 62.375 C-125.48445135 64.12191242 -117.91518786 66.50435353 -110.31469727 69.39306641 C-106.56678135 70.78131301 -103.44995683 71.72834747 -99.4375 71.375 C-99.25316406 70.7665625 -99.06882813 70.158125 -98.87890625 69.53125 C-94.3234342 55.76360112 -86.7372713 42.65530103 -76.4375 32.375 C-75.7775 32.375 -75.1175 32.375 -74.4375 32.375 C-74.4375 31.715 -74.4375 31.055 -74.4375 30.375 C-56.03916533 10.30914255 -26.61300316 -0.30565148 0 0 Z " fill="#2258D4" transform="translate(214.4375,112.625)"/>
<path d="M0 0 C0 29.7 0 59.4 0 90 C-12.44775918 82.0786987 -12.44775918 82.0786987 -17.9375 77.9375 C-26.32569792 71.7017826 -34.89955192 65.74116181 -43.47363281 59.76513672 C-47.57565475 56.8991125 -51.66337683 54.01292092 -55.75 51.125 C-56.48331543 50.60687744 -57.21663086 50.08875488 -57.97216797 49.55493164 C-59.64835267 48.37029492 -61.32421659 47.18520433 -63 46 C-61.59722694 41.79168083 -58.55583951 40.40105878 -55 38.0625 C-53.52532315 37.07138074 -52.05138785 36.0791574 -50.578125 35.0859375 C-49.81693359 34.57514648 -49.05574219 34.06435547 -48.27148438 33.53808594 C-44.72812729 31.13877923 -41.23884366 28.66512058 -37.75 26.1875 C-33.09722226 22.89049136 -28.43818961 19.60319409 -23.76171875 16.33984375 C-22.87581055 15.72149658 -21.98990234 15.10314941 -21.07714844 14.46606445 C-19.36895721 13.27465953 -17.66002139 12.08432117 -15.95019531 10.89526367 C-11.39525428 7.7171275 -6.91727557 4.46782162 -2.51586914 1.07958984 C-1 0 -1 0 0 0 Z " fill="#235BDB" transform="translate(422,169)"/>
<path d="M0 0 C0.79148438 0.10699219 1.58296875 0.21398437 2.3984375 0.32421875 C3.21570313 0.44410156 4.03296875 0.56398438 4.875 0.6875 C17.6506458 2.50067544 17.6506458 2.50067544 29.875 -0.3125 C30.865 0.3475 31.855 1.0075 32.875 1.6875 C19.26334162 4.98016898 5.53247263 4.34773815 -8.125 1.6875 C-5.14933369 -0.05386526 -3.40145502 -0.52088702 0 0 Z " fill="#1C44A0" transform="translate(203.125,323.3125)"/>
<path d="M0 0 C0.66 0.33 1.32 0.66 2 1 C1.5373877 1.44166504 1.07477539 1.88333008 0.59814453 2.33837891 C-9.03439396 11.59279539 -17.74714282 20.75539833 -25 32 C-25 24.35323911 -15.98817815 15.38139039 -11 10 C-10.34 10 -9.68 10 -9 10 C-9 9.34 -9 8.68 -9 8 C-7.28515625 6.30859375 -7.28515625 6.30859375 -5.0625 4.4375 C-4.33160156 3.81746094 -3.60070312 3.19742188 -2.84765625 2.55859375 C-2.23792969 2.04425781 -1.62820312 1.52992188 -1 1 C-0.67 0.67 -0.34 0.34 0 0 Z " fill="#1C45A4" transform="translate(149,135)"/>
<path d="M0 0 C1.48463745 0.08640747 1.48463745 0.08640747 2.99926758 0.17456055 C4.07241211 0.2293457 5.14555664 0.28413086 6.2512207 0.34057617 C7.93054688 0.44982422 7.93054688 0.44982422 9.64379883 0.5612793 C11.34052734 0.653125 11.34052734 0.653125 13.0715332 0.74682617 C15.86755186 0.90019428 18.66193646 1.06805884 21.45629883 1.2487793 C21.45629883 1.5787793 21.45629883 1.9087793 21.45629883 2.2487793 C8.09129883 2.7437793 8.09129883 2.7437793 -5.54370117 3.2487793 C-2.54370117 0.2487793 -2.54370117 0.2487793 0 0 Z " fill="#1C3E90" transform="translate(205.543701171875,134.751220703125)"/>
<path d="M0 0 C5.94 0 11.88 0 18 0 C14.05050415 2.63299723 10.51142372 3.43466949 5.765625 2.61328125 C3.82951859 2.12925465 1.91244799 1.57037923 0 1 C0 0.67 0 0.34 0 0 Z " fill="#1F50C1" transform="translate(207,303)"/>
<path d="M0 0 C0.99 0.33 1.98 0.66 3 1 C2.55269531 1.36351562 2.10539063 1.72703125 1.64453125 2.1015625 C-2.38793652 5.4547873 -5.76004454 8.87642033 -9 13 C-9.33 12.34 -9.66 11.68 -10 11 C-8.89718873 9.72799029 -7.79269231 8.45744147 -6.6875 7.1875 C-6.07261719 6.47980469 -5.45773438 5.77210938 -4.82421875 5.04296875 C-3.26665665 3.29863261 -1.67341125 1.63221959 0 0 Z " fill="#1E4CB6" transform="translate(158,157)"/>
<path d="M0 0 C-3.7559214 3.42931954 -8.23466745 4.56429083 -13 6 C-9.41603189 2.00249711 -5.50726745 -1.83575582 0 0 Z " fill="#1D4CB7" transform="translate(263,315)"/>
<path d="M0 0 C-3.82288811 2.20551237 -7.78749935 3.48595996 -12.1875 2.51953125 C-12.785625 2.34808594 -13.38375 2.17664063 -14 2 C-12.42085985 1.46658816 -10.83645613 0.94874237 -9.25 0.4375 C-8.36828125 0.14746094 -7.4865625 -0.14257812 -6.578125 -0.44140625 C-3.92165684 -1.01697435 -2.52968894 -0.89248371 0 0 Z " fill="#1C439E" transform="translate(194,116)"/>
<path d="M0 0 C0 0.33 0 0.66 0 1 C-9.41002278 3.48063781 -9.41002278 3.48063781 -14 2 C-14 1.67 -14 1.34 -14 1 C-9.23692563 0.04738513 -4.8333472 -0.08333357 0 0 Z " fill="#1C4198" transform="translate(208,113)"/>
<path d="M0 0 C0.66 0.33 1.32 0.66 2 1 C0.515 4.465 0.515 4.465 -1 8 C-1.66 7.67 -2.32 7.34 -3 7 C-1.125 1.125 -1.125 1.125 0 0 Z " fill="#1E4FBD" transform="translate(312,261)"/>
</svg>
