<?xml version="1.0" standalone="no"?>
<!DOCTYPE svg PUBLIC "-//W3C//DTD SVG 20010904//EN"
 "http://www.w3.org/TR/2001/REC-SVG-20010904/DTD/svg10.dtd">
<svg version="1.0" xmlns="http://www.w3.org/2000/svg"
 width="478.000000pt" height="478.000000pt" viewBox="0 0 478.000000 478.000000"
 preserveAspectRatio="xMidYMid meet">

<g transform="translate(0.000000,478.000000) scale(0.100000,-0.100000)"
fill="#0065ac" stroke="none">
<path d="M2224 4760 c-1136 -88 -2039 -943 -2190 -2075 -20 -148 -19 -456 1
-610 105 -790 578 -1462 1280 -1817 231 -116 432 -183 686 -228 157 -28 476
-38 640 -21 554 58 1054 296 1444 686 353 352 576 786 666 1290 27 151 37 481
20 647 -104 1005 -838 1837 -1826 2071 -213 51 -504 73 -721 57z m321 -820
c432 -37 814 -171 972 -343 155 -168 140 -332 -44 -480 -117 -94 -141 -107
-195 -107 -60 0 -100 -16 -180 -73 -35 -24 -79 -49 -98 -56 -186 -59 -614 -99
-861 -81 -317 23 -554 78 -775 180 -158 73 -281 178 -329 282 -93 200 80 417
437 549 310 114 696 161 1073 129z m-1384 -1024 c84 -63 147 -97 279 -150 133
-52 304 -97 470 -123 91 -14 175 -18 400 -18 157 0 304 3 328 8 l44 7 -45 -57
c-86 -113 -104 -178 -72 -268 8 -21 13 -40 12 -40 -1 -1 -33 -6 -71 -13 -50
-8 -83 -20 -115 -43 l-46 -32 -165 6 c-342 13 -583 68 -830 189 -106 53 -136
73 -209 142 -125 121 -131 136 -131 369 l0 189 45 -61 c26 -33 73 -80 106
-105z m2455 -213 c-7 -8 -45 7 -61 23 -8 9 -15 27 -15 42 0 14 -10 56 -22 93
l-22 68 60 77 59 78 3 -189 c1 -103 0 -190 -2 -192z m-246 -225 c295 -63 511
-198 629 -392 101 -168 135 -409 85 -615 -23 -95 -104 -256 -167 -332 -97
-116 -228 -203 -387 -255 -78 -26 -98 -28 -240 -28 -150 -1 -158 1 -250 32
-227 79 -392 224 -488 432 -94 203 -107 426 -35 610 14 36 27 67 29 69 2 2 46
-5 99 -15 79 -15 95 -20 89 -33 -46 -106 -57 -152 -62 -255 -6 -132 6 -192 59
-303 71 -149 197 -260 359 -317 114 -40 265 -43 380 -8 206 64 371 235 425
443 34 128 18 301 -39 424 -91 196 -325 354 -528 355 l-37 0 -3 -121 -3 -120
-233 174 -232 175 227 170 228 171 5 -121 5 -121 85 -19z m-2287 -91 c153
-193 575 -343 1050 -373 75 -4 117 -11 117 -18 0 -17 -39 -347 -46 -384 l-5
-34 -77 7 c-439 36 -735 130 -950 300 -84 67 -134 131 -152 195 -5 19 -10 118
-9 220 0 177 1 184 17 160 9 -13 34 -46 55 -73z m86 -694 c163 -135 415 -216
835 -268 115 -14 216 -30 225 -35 9 -5 25 -35 35 -67 25 -77 88 -203 142 -281
24 -35 44 -66 44 -69 0 -9 -414 5 -505 17 -260 35 -519 118 -670 214 -99 64
-215 175 -241 230 -22 48 -24 62 -24 244 l0 194 47 -62 c26 -35 76 -87 112
-117z"/>
</g>
</svg>
